<?xml version="1.0" standalone="no"?>
<!DOCTYPE svg PUBLIC "-//W3C//DTD SVG 20010904//EN"
 "http://www.w3.org/TR/2001/REC-SVG-20010904/DTD/svg10.dtd">
<svg version="1.0" xmlns="http://www.w3.org/2000/svg"
 width="1280.000000pt" height="1280.000000pt" viewBox="0 0 1280.000000 1280.000000"
 preserveAspectRatio="xMidYMid meet">
<g transform="translate(0.000000,1280.000000) scale(0.100000,-0.100000)"
fill="#ff5722" stroke="none">
<path d="M1540 12210 c0 -380 3 -580 10 -580 7 0 10 200 10 580 0 380 -3 580
-10 580 -7 0 -10 -200 -10 -580z"/>
<path d="M10 11250 c0 -7 200 -10 580 -10 380 0 580 3 580 10 0 7 -200 10
-580 10 -380 0 -580 -3 -580 -10z"/>
<path d="M11630 11250 c0 -7 200 -10 580 -10 380 0 580 3 580 10 0 7 -200 10
-580 10 -380 0 -580 -3 -580 -10z"/>
<path d="M6145 10394 c-27 -2 -113 -11 -190 -19 -1265 -138 -2390 -878 -3032
-1995 -760 -1323 -685 -3011 190 -4260 619 -884 1535 -1471 2587 -1659 245
-43 392 -55 695 -56 294 0 395 7 635 46 1608 256 2904 1469 3269 3059 71 307
96 538 96 890 0 352 -25 583 -96 890 -268 1167 -1042 2151 -2115 2688 -422
211 -846 337 -1339 398 -124 15 -587 27 -700 18z m545 -734 c641 -58 1245
-301 1755 -707 141 -112 396 -367 508 -508 355 -446 586 -964 676 -1515 85
-519 40 -1079 -124 -1560 -103 -301 -206 -513 -371 -765 -88 -135 -213 -297
-225 -293 -9 3 -1499 1490 -1499 1496 0 1 14 -7 30 -20 44 -32 143 -37 196
-10 49 25 79 57 99 104 13 33 15 152 15 982 0 644 -3 962 -11 998 -35 172
-177 331 -349 390 l-65 23 -925 0 -925 0 -65 -23 c-77 -26 -157 -78 -218 -140
l-44 -45 -423 423 -423 423 71 56 c200 156 356 255 582 366 373 185 749 289
1180 328 92 8 449 6 555 -3z m-1640 -3033 c0 -616 2 -712 15 -745 64 -151 273
-167 360 -27 l30 48 5 509 5 508 117 -117 118 -118 2 -1570 c3 -1466 4 -1573
20 -1608 49 -107 152 -177 261 -177 33 0 77 5 97 11 64 19 131 78 165 144 l30
59 5 1057 c5 1039 5 1057 25 1079 26 28 68 50 97 50 30 0 83 -33 100 -62 10
-18 14 -231 18 -1074 l5 -1050 30 -59 c73 -142 239 -196 383 -124 64 32 110
79 140 146 16 35 17 107 20 908 l3 869 694 -694 c382 -382 695 -698 695 -702
0 -11 -178 -146 -295 -222 -462 -304 -971 -480 -1525 -527 -168 -15 -543 -6
-700 16 -371 51 -689 148 -1015 310 -345 170 -583 342 -866 624 -282 283 -454
521 -624 866 -163 329 -258 641 -312 1025 -25 178 -25 662 0 840 54 384 149
696 312 1025 110 223 201 369 365 582 l55 72 583 -582 582 -582 0 -708z m617
1029 c29 -31 33 -43 33 -88 l0 -53 -85 85 c-91 90 -94 105 -20 96 30 -4 49
-14 72 -40z m1637 5 l31 -31 5 -863 5 -862 23 -38 c12 -21 22 -39 22 -41 0 -1
-65 63 -145 144 l-145 146 0 751 0 751 27 32 c34 40 58 51 107 46 27 -3 49
-14 70 -35z"/>
<path d="M6230 9451 c-201 -65 -337 -222 -371 -431 -25 -150 33 -329 144 -440
246 -247 625 -203 823 95 191 287 31 690 -311 781 -71 20 -218 17 -285 -5z"/>
<path d="M10 1550 c0 -7 200 -10 580 -10 380 0 580 3 580 10 0 7 -200 10 -580
10 -380 0 -580 -3 -580 -10z"/>
<path d="M11630 1550 c0 -7 200 -10 580 -10 380 0 580 3 580 10 0 7 -200 10
-580 10 -380 0 -580 -3 -580 -10z"/>
<path d="M1540 590 c0 -380 3 -580 10 -580 7 0 10 200 10 580 0 380 -3 580
-10 580 -7 0 -10 -200 -10 -580z"/>
<path d="M11240 590 c0 -380 3 -580 10 -580 7 0 10 200 10 580 0 380 -3 580
-10 580 -7 0 -10 -200 -10 -580z"/>
</g>
</svg>
